<?xml version="1.0" encoding="utf-8"?>
<!-- Generator: Adobe Illustrator 21.0.0, SVG Export Plug-In . SVG Version: 6.00 Build 0)  -->
<svg version="1.1" id="Layer_1" xmlns="http://www.w3.org/2000/svg" xmlns:xlink="http://www.w3.org/1999/xlink" x="0px" y="0px"
	 viewBox="0 0 32 32" style="enable-background:new 0 0 32 32;" xml:space="preserve">
<style type="text/css">
	.st0{fill:#3E887B;}
	.st1{fill:#84C441;}
	.st2{fill:#2A2D35;}
</style>
<path class="st0" d="M10.7,8c0,0-1.8-3.9,3.1-6.9c0.9-0.5,1.9-0.7,2.9-0.5c1.3,0.2,2.4,0.5,3.3,1.8c0.1,0.1,0.2,0.2,0.3,0.2
	c0.6,0.2,2.3,1,1.3,5.7c0,0,0.7,0.2,0.3,1.6s-0.8,2.5-1.3,2.1c0,0-0.5,1.7-0.6,1.9c-0.1,0.2,0,2.1,0,2.1s0,0.2,0.3,0.3
	c0.4,0.2,6.3,3.5,7,4.8s0.9,1.6,0.7,4.2c0,0-0.3,0.7-1,0.7s-4.4,0-4.4,0s0.4-4.1-4-6.1s-9.4,1.6-9.3,6.2H4.9c0,0-1-0.1-1-1.4
	c0-1.2-0.1-3.2,1.7-4.5c1.8-1.3,4.3-3,6.4-4.1l0.1-1.9c0,0-0.6-1.3-0.9-2.4c0,0-0.7-0.3-1.2-2.6C10,9.2,9.7,7.9,10.7,8z"/>
<circle class="st1" cx="16" cy="25.9" r="5.5"/>
<path class="st2" d="M16,22.1L16,22.1c0.4,0,0.7,0.3,0.7,0.7l0,6.4c0,0.4-0.3,0.7-0.7,0.7h0c-0.4,0-0.7-0.3-0.7-0.7l0-6.4
	C15.3,22.4,15.6,22.1,16,22.1z"/>
<path class="st2" d="M12.1,25.9L12.1,25.9c0-0.4,0.3-0.7,0.7-0.7l6.4,0c0.4,0,0.7,0.3,0.7,0.7l0,0c0,0.4-0.3,0.7-0.7,0.7l-6.4,0
	C12.4,26.6,12.1,26.3,12.1,25.9z"/>
</svg>
