<?xml version="1.0" encoding="utf-8"?>
<!-- Generator: Adobe Illustrator 21.0.0, SVG Export Plug-In . SVG Version: 6.00 Build 0)  -->
<svg version="1.1" id="Layer_1" xmlns="http://www.w3.org/2000/svg" xmlns:xlink="http://www.w3.org/1999/xlink" x="0px" y="0px"
	 width="50px" height="50px" viewBox="0 0 50 50" style="enable-background:new 0 0 50 50;" xml:space="preserve">
<style type="text/css">
	.st0{fill:url(#SVGID_1_);}
	.st1{fill:url(#SVGID_2_);}
	.st2{fill:url(#SVGID_3_);}
	.st3{fill:url(#SVGID_4_);}
	.st4{fill:url(#SVGID_5_);}
	.st5{fill:url(#SVGID_6_);}
	.st6{fill:url(#SVGID_7_);}
	.st7{fill:url(#SVGID_8_);}
	.st8{fill:url(#SVGID_9_);}
	.st9{fill:url(#SVGID_10_);}
	.st10{fill:url(#SVGID_11_);}
	.st11{fill:url(#SVGID_12_);}
	.st12{fill:url(#SVGID_13_);}
	.st13{opacity:0.8;fill:url(#SVGID_14_);}
	.st14{opacity:0.8;fill:url(#SVGID_15_);}
	.st15{opacity:0.8;fill:url(#SVGID_16_);}
	.st16{fill:url(#SVGID_17_);}
	.st17{fill:url(#SVGID_18_);}
	.st18{fill:url(#SVGID_19_);}
	.st19{fill:url(#SVGID_20_);}
	.st20{fill:url(#SVGID_21_);}
	.st21{fill:url(#SVGID_22_);}
	.st22{fill:url(#SVGID_23_);}
	.st23{fill:url(#SVGID_24_);}
</style>
<g>
	<g>
		
			<linearGradient id="SVGID_1_" gradientUnits="userSpaceOnUse" x1="-1756.9663" y1="45.946" x2="-1750.1255" y2="28.6496" gradientTransform="matrix(-1 0 0 1 -1721.0039 0)">
			<stop  offset="0" style="stop-color:#DAA520"/>
			<stop  offset="2.318059e-02" style="stop-color:#DEAC2F"/>
			<stop  offset="0.151" style="stop-color:#F1CF7E"/>
			<stop  offset="0.2097" style="stop-color:#F9DD9D"/>
			<stop  offset="0.4462" style="stop-color:#916503"/>
			<stop  offset="0.6667" style="stop-color:#FFD169"/>
			<stop  offset="1" style="stop-color:#DAA520"/>
		</linearGradient>
		<polygon class="st0" points="31.6,22.5 23,26 32.4,49.4 35.5,44.7 41,46 		"/>
		<linearGradient id="SVGID_2_" gradientUnits="userSpaceOnUse" x1="23.0403" y1="35.99" x2="41.0094" y2="35.99">
			<stop  offset="0" style="stop-color:#DAA520"/>
			<stop  offset="2.318059e-02" style="stop-color:#DEAC2F"/>
			<stop  offset="0.151" style="stop-color:#F1CF7E"/>
			<stop  offset="0.2097" style="stop-color:#F9DD9D"/>
			<stop  offset="0.4462" style="stop-color:#916503"/>
			<stop  offset="0.6667" style="stop-color:#FFD169"/>
			<stop  offset="1" style="stop-color:#DAA520"/>
		</linearGradient>
		<path class="st1" d="M31.6,22.7l9.3,23.2l-5.3-1.2l-0.1,0l0,0.1l-3,4.6L23.2,26L31.6,22.7 M31.6,22.5L23,26l9.4,23.5l3.1-4.7
			L41,46L31.6,22.5L31.6,22.5z"/>
	</g>
	<g>
		<g>
			<linearGradient id="SVGID_3_" gradientUnits="userSpaceOnUse" x1="14.8794" y1="46.7026" x2="22.1753" y2="28.2555">
				<stop  offset="0" style="stop-color:#DAA520"/>
				<stop  offset="2.318059e-02" style="stop-color:#DEAC2F"/>
				<stop  offset="0.151" style="stop-color:#F1CF7E"/>
				<stop  offset="0.2097" style="stop-color:#F9DD9D"/>
				<stop  offset="0.4462" style="stop-color:#916503"/>
				<stop  offset="0.6667" style="stop-color:#FFD169"/>
				<stop  offset="1" style="stop-color:#DAA520"/>
			</linearGradient>
			<polygon class="st2" points="19.2,23.3 27.8,26.7 18.4,50.2 15.3,45.5 9.8,46.8 			"/>
			<linearGradient id="SVGID_4_" gradientUnits="userSpaceOnUse" x1="9.8327" y1="36.7468" x2="27.8013" y2="36.7468">
				<stop  offset="0" style="stop-color:#DAA520"/>
				<stop  offset="2.318059e-02" style="stop-color:#DEAC2F"/>
				<stop  offset="0.151" style="stop-color:#F1CF7E"/>
				<stop  offset="0.2097" style="stop-color:#F9DD9D"/>
				<stop  offset="0.4462" style="stop-color:#916503"/>
				<stop  offset="0.6667" style="stop-color:#FFD169"/>
				<stop  offset="1" style="stop-color:#DAA520"/>
			</linearGradient>
			<path class="st3" d="M19.3,23.4l8.4,3.4L18.4,50l-3-4.6l0-0.1l-0.1,0L10,46.6L19.3,23.4 M19.2,23.3L9.8,46.8l5.5-1.3l3.1,4.7
				l9.4-23.5L19.2,23.3L19.2,23.3z"/>
		</g>
	</g>
	<linearGradient id="SVGID_5_" gradientUnits="userSpaceOnUse" x1="6.1392" y1="19.6157" x2="44.5464" y2="19.6157">
		<stop  offset="0" style="stop-color:#DAA520"/>
		<stop  offset="2.318059e-02" style="stop-color:#DEAC2F"/>
		<stop  offset="0.151" style="stop-color:#F1CF7E"/>
		<stop  offset="0.2097" style="stop-color:#F9DD9D"/>
		<stop  offset="0.4462" style="stop-color:#916503"/>
		<stop  offset="0.6667" style="stop-color:#FFD169"/>
		<stop  offset="1" style="stop-color:#DAA520"/>
	</linearGradient>
	<circle class="st4" cx="25.3" cy="19.6" r="19.2"/>
	
		<linearGradient id="SVGID_6_" gradientUnits="userSpaceOnUse" x1="-1348.3964" y1="-1565.5619" x2="-1312.2023" y2="-1529.3678" gradientTransform="matrix(-1 0 0 -1 -1308.4795 -1531.3721)">
		<stop  offset="0" style="stop-color:#DAA520"/>
		<stop  offset="2.318059e-02" style="stop-color:#DEAC2F"/>
		<stop  offset="0.151" style="stop-color:#F1CF7E"/>
		<stop  offset="0.2097" style="stop-color:#F9DD9D"/>
		<stop  offset="0.4462" style="stop-color:#916503"/>
		<stop  offset="0.6667" style="stop-color:#FFD169"/>
		<stop  offset="1" style="stop-color:#DAA520"/>
	</linearGradient>
	<circle class="st5" cx="25.3" cy="19.6" r="18.8"/>
	<radialGradient id="SVGID_7_" cx="25.3428" cy="19.6157" r="18.3549" gradientUnits="userSpaceOnUse">
		<stop  offset="0" style="stop-color:#5E5D5C"/>
		<stop  offset="0.5161" style="stop-color:#302A1D"/>
		<stop  offset="1" style="stop-color:#161104"/>
	</radialGradient>
	<circle class="st6" cx="25.3" cy="19.6" r="18.4"/>
	<g>
		<linearGradient id="SVGID_8_" gradientUnits="userSpaceOnUse" x1="12.795" y1="5.4881" x2="41.2693" y2="37.4511">
			<stop  offset="0" style="stop-color:#D5D5D5"/>
			<stop  offset="5.046252e-02" style="stop-color:#E0E0E0"/>
			<stop  offset="0.2097" style="stop-color:#FFFFFF"/>
			<stop  offset="0.4462" style="stop-color:#272727"/>
			<stop  offset="0.6667" style="stop-color:#B7B7B7"/>
			<stop  offset="1" style="stop-color:#D5D5D5"/>
		</linearGradient>
		<path class="st7" d="M24.6,37c-0.1,0-0.2-0.1-0.2-0.2l0,0c0-0.1,0.1-0.2,0.2-0.2l0,0c0.1,0,0.2,0.1,0.2,0.2l0,0
			C24.8,36.9,24.7,37,24.6,37L24.6,37C24.6,37,24.6,37,24.6,37z M27.5,36.7c0-0.1,0.1-0.2,0.2-0.2l0,0c0.1,0,0.2,0.1,0.2,0.2l0,0
			c0,0.1-0.1,0.2-0.2,0.2l0,0c0,0,0,0,0,0l0,0C27.6,36.8,27.5,36.8,27.5,36.7z M21.5,36.6L21.5,36.6L21.5,36.6
			c-0.1,0-0.2-0.1-0.2-0.2l0,0c0-0.1,0.1-0.2,0.2-0.2l0,0c0.1,0,0.2,0.1,0.2,0.2l0,0C21.7,36.5,21.6,36.6,21.5,36.6L21.5,36.6
			C21.5,36.6,21.5,36.6,21.5,36.6z M30.5,36c0-0.1,0-0.2,0.1-0.3l0,0c0.1,0,0.2,0,0.3,0.1l0,0c0,0.1,0,0.2-0.1,0.3l0,0l0,0l0,0
			c0,0,0,0-0.1,0l0,0C30.6,36.2,30.5,36.1,30.5,36z M18.5,35.6c-0.1,0-0.2-0.2-0.1-0.3l0,0c0-0.1,0.2-0.2,0.3-0.1l0,0
			c0.1,0,0.2,0.2,0.1,0.3l0,0C18.8,35.6,18.7,35.6,18.5,35.6L18.5,35.6C18.6,35.6,18.5,35.6,18.5,35.6z M33.3,34.8
			c-0.1-0.1,0-0.2,0.1-0.3l0,0c0.1-0.1,0.2,0,0.3,0.1l0,0c0.1,0.1,0,0.2-0.1,0.3l0,0c0,0-0.1,0-0.1,0l0,0
			C33.4,34.9,33.3,34.9,33.3,34.8z M15.8,34.1C15.8,34.1,15.8,34.1,15.8,34.1L15.8,34.1c-0.1-0.1-0.1-0.2-0.1-0.3l0,0
			c0.1-0.1,0.2-0.1,0.3-0.1l0,0c0.1,0.1,0.1,0.2,0.1,0.3l0,0c0,0.1-0.1,0.1-0.2,0.1l0,0C15.9,34.2,15.8,34.2,15.8,34.1z M35.9,33.2
			c-0.1-0.1-0.1-0.2,0-0.3l0,0c0.1-0.1,0.2-0.1,0.3,0l0,0c0.1,0.1,0.1,0.2,0,0.3l0,0c0,0-0.1,0-0.1,0l0,0
			C36,33.2,35.9,33.2,35.9,33.2z M13.3,32.2c-0.1-0.1-0.1-0.2,0-0.3l0,0c0.1-0.1,0.2-0.1,0.3,0l0,0c0.1,0.1,0.1,0.2,0,0.3l0,0
			c0,0-0.1,0.1-0.1,0.1l0,0C13.4,32.2,13.4,32.2,13.3,32.2z M38.1,31.1c-0.1-0.1-0.1-0.2,0-0.3l0,0c0.1-0.1,0.2-0.1,0.3,0l0,0
			c0.1,0.1,0.1,0.2,0,0.3l0,0c0,0-0.1,0.1-0.2,0.1l0,0C38.2,31.1,38.2,31.1,38.1,31.1z M11.3,29.8C11.3,29.8,11.3,29.8,11.3,29.8
			L11.3,29.8c-0.1-0.1,0-0.2,0-0.3l0,0c0.1-0.1,0.2,0,0.3,0l0,0c0.1,0.1,0,0.2,0,0.3l0,0c0,0-0.1,0-0.1,0l0,0
			C11.4,29.9,11.3,29.9,11.3,29.8z M40,28.6c-0.1-0.1-0.1-0.2-0.1-0.3l0,0c0.1-0.1,0.2-0.1,0.3-0.1l0,0c0.1,0.1,0.1,0.2,0.1,0.3l0,0
			c0,0.1-0.1,0.1-0.2,0.1l0,0C40.1,28.6,40,28.6,40,28.6z M9.7,27.2c0-0.1,0-0.2,0.1-0.3l0,0c0.1,0,0.2,0,0.3,0.1l0,0
			c0,0.1,0,0.2-0.1,0.3l0,0c0,0-0.1,0-0.1,0l0,0C9.8,27.3,9.7,27.2,9.7,27.2z M41.4,25.8c-0.1,0-0.2-0.2-0.1-0.3l0,0
			c0-0.1,0.2-0.2,0.3-0.1l0,0c0.1,0,0.2,0.2,0.1,0.3l0,0l0,0l0,0C41.6,25.8,41.5,25.9,41.4,25.8L41.4,25.8
			C41.4,25.9,41.4,25.9,41.4,25.8z M8.6,24.3c0-0.1,0-0.2,0.1-0.3l0,0C8.8,24,9,24,9,24.1l0,0c0,0.1,0,0.2-0.1,0.3l0,0
			c0,0,0,0-0.1,0l0,0C8.7,24.4,8.6,24.3,8.6,24.3z M42.2,22.9c-0.1,0-0.2-0.1-0.2-0.2l0,0c0-0.1,0.1-0.2,0.2-0.2l0,0
			c0.1,0,0.2,0.1,0.2,0.2l0,0C42.4,22.8,42.3,22.9,42.2,22.9L42.2,22.9C42.2,22.9,42.2,22.9,42.2,22.9z M8,21.2
			C8,21.1,8.1,21,8.2,21l0,0c0.1,0,0.2,0.1,0.2,0.2l0,0c0,0.1-0.1,0.2-0.2,0.2l0,0c0,0,0,0,0,0l0,0C8.1,21.4,8,21.3,8,21.2z
			 M42.3,19.6C42.3,19.6,42.3,19.6,42.3,19.6L42.3,19.6C42.3,19.6,42.3,19.6,42.3,19.6L42.3,19.6c0-0.2,0.1-0.2,0.2-0.2l0,0
			c0.1,0,0.2,0.1,0.2,0.2l0,0c0,0,0,0,0,0l0,0c0,0,0,0,0,0l0,0c0,0.1-0.1,0.2-0.2,0.2l0,0C42.4,19.8,42.3,19.7,42.3,19.6z M8.2,18.3
			c-0.1,0-0.2-0.1-0.2-0.2l0,0c0-0.1,0.1-0.2,0.2-0.2l0,0c0.1,0,0.2,0.1,0.2,0.2l0,0C8.4,18.2,8.3,18.3,8.2,18.3L8.2,18.3
			C8.2,18.3,8.2,18.3,8.2,18.3z M42,16.5c0-0.1,0.1-0.2,0.2-0.2l0,0c0.1,0,0.2,0.1,0.2,0.2l0,0c0,0.1-0.1,0.2-0.2,0.2l0,0
			c0,0,0,0,0,0l0,0C42.1,16.7,42.1,16.6,42,16.5z M8.7,15.3c-0.1,0-0.2-0.1-0.1-0.3l0,0c0-0.1,0.1-0.2,0.3-0.1l0,0
			C8.9,14.9,9,15,9,15.1l0,0C8.9,15.2,8.9,15.3,8.7,15.3L8.7,15.3C8.8,15.3,8.7,15.3,8.7,15.3z M41.2,13.6c0-0.1,0-0.2,0.1-0.3l0,0
			c0.1,0,0.2,0,0.3,0.1l0,0c0,0.1,0,0.2-0.1,0.3l0,0c0,0,0,0-0.1,0l0,0C41.3,13.8,41.3,13.7,41.2,13.6z M9.8,12.4
			c-0.1,0-0.1-0.2-0.1-0.3l0,0c0-0.1,0.2-0.1,0.3-0.1l0,0c0.1,0,0.1,0.2,0.1,0.3l0,0C10,12.3,9.9,12.4,9.8,12.4L9.8,12.4
			C9.8,12.4,9.8,12.4,9.8,12.4z M39.9,10.9L39.9,10.9c-0.1-0.1,0-0.2,0.1-0.3l0,0c0.1-0.1,0.2,0,0.3,0.1l0,0c0.1,0.1,0,0.2-0.1,0.3
			l0,0c0,0-0.1,0-0.1,0l0,0C40,11,39.9,10.9,39.9,10.9z M11.3,9.7c-0.1-0.1-0.1-0.2,0-0.3l0,0c0.1-0.1,0.2-0.1,0.3,0l0,0
			c0.1,0.1,0.1,0.2,0,0.3l0,0c0,0.1-0.1,0.1-0.2,0.1l0,0C11.4,9.7,11.3,9.7,11.3,9.7z M38.1,8.4c-0.1-0.1-0.1-0.2,0-0.3l0,0
			c0.1-0.1,0.2-0.1,0.3,0l0,0c0.1,0.1,0.1,0.2,0,0.3l0,0c0,0-0.1,0.1-0.1,0.1l0,0C38.2,8.5,38.1,8.5,38.1,8.4z M13.3,7.4
			c-0.1-0.1-0.1-0.2,0-0.3l0,0c0.1-0.1,0.2-0.1,0.3,0l0,0c0.1,0.1,0.1,0.2,0,0.3l0,0c0,0-0.1,0.1-0.1,0.1l0,0
			C13.4,7.4,13.3,7.4,13.3,7.4z M35.9,6.3c-0.1-0.1-0.1-0.2,0-0.3l0,0c0.1-0.1,0.2-0.1,0.3,0l0,0c0.1,0.1,0.1,0.2,0,0.3l0,0
			c0,0.1-0.1,0.1-0.2,0.1l0,0C36,6.4,35.9,6.4,35.9,6.3z M15.7,5.4c-0.1-0.1,0-0.2,0.1-0.3l0,0c0.1-0.1,0.2,0,0.3,0.1l0,0
			c0.1,0.1,0,0.2-0.1,0.3l0,0c0,0-0.1,0-0.1,0l0,0C15.8,5.5,15.7,5.5,15.7,5.4z M33.4,4.7L33.4,4.7c-0.1-0.1-0.1-0.2-0.1-0.3l0,0
			c0.1-0.1,0.2-0.1,0.3-0.1l0,0l0,0l0,0c0.1,0.1,0.1,0.2,0.1,0.3l0,0C33.6,4.6,33.5,4.7,33.4,4.7L33.4,4.7
			C33.4,4.7,33.4,4.7,33.4,4.7z M18.4,3.9c0-0.1,0-0.2,0.1-0.3l0,0c0.1,0,0.2,0,0.3,0.1l0,0c0,0.1,0,0.2-0.1,0.3l0,0
			c0,0-0.1,0-0.1,0l0,0C18.5,4,18.4,4,18.4,3.9z M30.6,3.5c-0.1,0-0.2-0.2-0.1-0.3l0,0c0-0.1,0.2-0.2,0.3-0.1l0,0
			c0.1,0,0.2,0.1,0.1,0.3l0,0C30.8,3.4,30.7,3.5,30.6,3.5L30.6,3.5C30.6,3.5,30.6,3.5,30.6,3.5z M21.3,2.9c0-0.1,0-0.2,0.2-0.2l0,0
			c0.1,0,0.2,0,0.2,0.2l0,0c0,0.1,0,0.2-0.2,0.2l0,0c0,0,0,0,0,0l0,0C21.4,3.1,21.3,3,21.3,2.9z M27.6,2.8c-0.1,0-0.2-0.1-0.2-0.2
			l0,0c0-0.1,0.1-0.2,0.2-0.2l0,0c0.1,0,0.2,0.1,0.2,0.2l0,0C27.8,2.7,27.7,2.8,27.6,2.8L27.6,2.8C27.6,2.8,27.6,2.8,27.6,2.8z
			 M24.3,2.5c0-0.1,0.1-0.2,0.2-0.2l0,0c0.1,0,0.2,0.1,0.2,0.2l0,0c0,0.1-0.1,0.2-0.2,0.2l0,0c0,0,0,0,0,0l0,0
			C24.4,2.7,24.3,2.6,24.3,2.5z"/>
	</g>
	
		<linearGradient id="SVGID_9_" gradientUnits="userSpaceOnUse" x1="-1345.8667" y1="-1561.0048" x2="-1322.0646" y2="-1541.2092" gradientTransform="matrix(-1 0 0 -1 -1308.4795 -1531.3721)">
		<stop  offset="0" style="stop-color:#DAA520"/>
		<stop  offset="2.318059e-02" style="stop-color:#DEAC2F"/>
		<stop  offset="0.151" style="stop-color:#F1CF7E"/>
		<stop  offset="0.2097" style="stop-color:#F9DD9D"/>
		<stop  offset="0.4462" style="stop-color:#916503"/>
		<stop  offset="0.6667" style="stop-color:#FFD169"/>
		<stop  offset="1" style="stop-color:#DAA520"/>
	</linearGradient>
	<circle class="st8" cx="25.3" cy="19.6" r="15.8"/>
	<linearGradient id="SVGID_10_" gradientUnits="userSpaceOnUse" x1="13.5408" y1="9.8004" x2="36.864" y2="29.1975">
		<stop  offset="0" style="stop-color:#DAA520"/>
		<stop  offset="2.318059e-02" style="stop-color:#DEAC2F"/>
		<stop  offset="0.151" style="stop-color:#F1CF7E"/>
		<stop  offset="0.2097" style="stop-color:#F9DD9D"/>
		<stop  offset="0.4462" style="stop-color:#916503"/>
		<stop  offset="0.6667" style="stop-color:#FFD169"/>
		<stop  offset="1" style="stop-color:#DAA520"/>
	</linearGradient>
	<circle class="st9" cx="25.3" cy="19.6" r="15.5"/>
	<linearGradient id="SVGID_11_" gradientUnits="userSpaceOnUse" x1="15.9624" y1="11.8145" x2="34.5" y2="27.2316">
		<stop  offset="0" style="stop-color:#D5D5D5"/>
		<stop  offset="5.046252e-02" style="stop-color:#E0E0E0"/>
		<stop  offset="0.2097" style="stop-color:#FFFFFF"/>
		<stop  offset="0.4462" style="stop-color:#272727"/>
		<stop  offset="0.6667" style="stop-color:#B7B7B7"/>
		<stop  offset="1" style="stop-color:#D5D5D5"/>
	</linearGradient>
	<circle class="st10" cx="25.3" cy="19.6" r="12.3"/>
	<radialGradient id="SVGID_12_" cx="34.5446" cy="33.1983" r="31.0091" gradientUnits="userSpaceOnUse">
		<stop  offset="0" style="stop-color:#5E5D5C"/>
		<stop  offset="0.5161" style="stop-color:#302A1D"/>
		<stop  offset="1" style="stop-color:#161104"/>
	</radialGradient>
	<circle class="st11" cx="25.3" cy="19.6" r="14.6"/>
	<linearGradient id="SVGID_13_" gradientUnits="userSpaceOnUse" x1="14.8586" y1="10.8966" x2="35.5776" y2="28.1278">
		<stop  offset="0" style="stop-color:#DAA520"/>
		<stop  offset="2.318059e-02" style="stop-color:#DEAC2F"/>
		<stop  offset="0.151" style="stop-color:#F1CF7E"/>
		<stop  offset="0.2097" style="stop-color:#F9DD9D"/>
		<stop  offset="0.4462" style="stop-color:#916503"/>
		<stop  offset="0.6667" style="stop-color:#FFD169"/>
		<stop  offset="1" style="stop-color:#DAA520"/>
	</linearGradient>
	<path class="st12" d="M25.3,5.9c-7.6,0-13.7,6.1-13.7,13.7s6.1,13.7,13.7,13.7c7.6,0,13.7-6.1,13.7-13.7S32.9,5.9,25.3,5.9z
		 M25.3,33C18,33,12,27,12,19.6c0-7.4,6-13.4,13.4-13.4s13.4,6,13.4,13.4C38.7,27,32.7,33,25.3,33z"/>
	<radialGradient id="SVGID_14_" cx="39.7548" cy="23.3708" r="31.6651" gradientUnits="userSpaceOnUse">
		<stop  offset="0" style="stop-color:#CBCBCB"/>
		<stop  offset="0.1398" style="stop-color:#6E6E6E"/>
		<stop  offset="0.1419" style="stop-color:#6D6D6D"/>
		<stop  offset="0.2468" style="stop-color:#4C4C4C"/>
		<stop  offset="0.3583" style="stop-color:#303030"/>
		<stop  offset="0.4792" style="stop-color:#1B1B1B"/>
		<stop  offset="0.6128" style="stop-color:#0C0C0C"/>
		<stop  offset="0.7686" style="stop-color:#030303"/>
		<stop  offset="1" style="stop-color:#000000"/>
	</radialGradient>
	<path class="st13" d="M16.6,31.4c3.9-9.2,11.3-16.6,20.6-20.4c-2.7-3.6-7-6-11.8-6c-8.1,0-14.6,6.6-14.6,14.6
		C10.7,24.4,13,28.7,16.6,31.4z"/>
	<radialGradient id="SVGID_15_" cx="12.4463" cy="4.3539" r="29.1346" gradientUnits="userSpaceOnUse">
		<stop  offset="0" style="stop-color:#CBCBCB"/>
		<stop  offset="0.1398" style="stop-color:#6E6E6E"/>
		<stop  offset="0.1419" style="stop-color:#6D6D6D"/>
		<stop  offset="0.2468" style="stop-color:#4C4C4C"/>
		<stop  offset="0.3583" style="stop-color:#303030"/>
		<stop  offset="0.4792" style="stop-color:#1B1B1B"/>
		<stop  offset="0.6128" style="stop-color:#0C0C0C"/>
		<stop  offset="0.7686" style="stop-color:#030303"/>
		<stop  offset="1" style="stop-color:#000000"/>
	</radialGradient>
	<path class="st14" d="M19.4,31.8l5.9-12.2l-6.2,12C19.2,31.7,19.3,31.8,19.4,31.8z M20.9,32.4l4.5-12.8l-4.8,12.7
		C20.6,32.3,20.8,32.4,20.9,32.4z M18,31l7.3-11.4l-7.6,11.2C17.8,30.9,17.9,31,18,31z M16.8,30.1l8.6-10.5l-8.8,10.3
		C16.6,30,16.7,30,16.8,30.1z M23.9,33.1l1.4-13.5l-1.8,13.4C23.7,33.1,23.8,33.1,23.9,33.1z M22.4,32.8l2.9-13.2L22,32.8
		C22.2,32.8,22.3,32.8,22.4,32.8z M13,25.2l12.4-5.5l-12.5,5.2C12.9,24.9,12.9,25,13,25.2z M12.4,23.7l12.9-4.1l-13,3.7
		C12.3,23.4,12.4,23.6,12.4,23.7z M25.3,33.2c0.1,0,0.1,0,0.2,0l-0.2-13.6l-0.2,13.6C25.2,33.2,25.3,33.2,25.3,33.2z M12,22.2
		l13.3-2.5L12,21.8C12,21.9,12,22,12,22.2z M14.6,27.9l10.8-8.2l-11,7.9C14.4,27.7,14.5,27.8,14.6,27.9z M15.6,29l9.7-9.4l-10,9.2
		C15.4,28.9,15.5,29,15.6,29z M13.7,26.6l11.6-6.9l-11.8,6.6C13.6,26.3,13.6,26.4,13.7,26.6z M34.2,29.9l-8.8-10.3l8.6,10.5
		C34,30,34.1,30,34.2,29.9z M38.4,23.3l-13-3.7l12.9,4.1C38.3,23.6,38.3,23.4,38.4,23.3z M37.9,24.8l-12.5-5.2l12.4,5.5
		C37.8,25,37.8,24.9,37.9,24.8z M37.2,26.2l-11.8-6.6L37,26.6C37.1,26.4,37.1,26.3,37.2,26.2z M38.7,21.8l-13.4-2.2l13.3,2.5
		C38.7,22,38.7,21.9,38.7,21.8z M38.9,20.6c0-0.1,0-0.2,0-0.4l-13.5-0.6L38.9,20.6z M27.1,33.1l-1.8-13.4l1.4,13.5
		C26.9,33.1,27,33.1,27.1,33.1z M36.3,27.6l-11-7.9l10.8,8.2C36.2,27.8,36.3,27.7,36.3,27.6z M30.1,32.3l-4.8-12.7l4.5,12.8
		C29.9,32.4,30,32.3,30.1,32.3z M31.6,31.6l-6.2-12l5.9,12.2C31.4,31.8,31.5,31.7,31.6,31.6z M28.6,32.8l-3.3-13.1l2.9,13.2
		C28.4,32.8,28.5,32.8,28.6,32.8z M32.9,30.8l-7.6-11.2L32.6,31C32.7,31,32.8,30.9,32.9,30.8z M35.3,28.8l-10-9.2l9.7,9.4
		C35.2,29,35.2,28.9,35.3,28.8z M11.8,20.6l13.5-1l-13.5,0.6C11.8,20.3,11.8,20.5,11.8,20.6z M12,17.4l13.4,2.2L12,17.1
		C12,17.2,12,17.3,12,17.4z M32.6,8.2l-7.3,11.4l7.6-11.2C32.8,8.3,32.7,8.3,32.6,8.2z M31.3,7.4l-5.9,12.2l6.2-12
		C31.5,7.5,31.4,7.5,31.3,7.4z M33.9,9.1l-8.6,10.5l8.8-10.3C34.1,9.3,34,9.2,33.9,9.1z M28.3,6.4l-2.9,13.2l3.3-13.2
		C28.5,6.4,28.4,6.4,28.3,6.4z M29.8,6.8l-4.5,12.8l4.8-12.7C30,6.9,29.9,6.9,29.8,6.8z M26.7,6.1l-1.4,13.5l1.8-13.4
		C27,6.2,26.9,6.1,26.7,6.1z M35.1,10.2l-9.7,9.4l10-9.2C35.2,10.4,35.2,10.3,35.1,10.2z M38.7,17.1l-13.3,2.5l13.4-2.2
		C38.7,17.3,38.7,17.2,38.7,17.1z M38.3,15.6l-12.9,4.1l13-3.7C38.3,15.8,38.3,15.7,38.3,15.6z M36.1,11.4l-10.8,8.2l11-7.9
		C36.3,11.6,36.2,11.5,36.1,11.4z M38.9,18.6l-13.5,1L38.9,19C38.9,18.9,38.9,18.8,38.9,18.6z M37.7,14.1l-12.4,5.5l12.5-5.2
		C37.8,14.3,37.8,14.2,37.7,14.1z M37,12.7l-11.6,6.9L37.2,13C37.1,12.9,37.1,12.8,37,12.7z M16.5,9.4l8.8,10.3L16.8,9.1
		C16.7,9.2,16.6,9.3,16.5,9.4z M25.3,6.1c-0.1,0-0.1,0-0.2,0l0.2,13.6l0.2-13.6C25.5,6.1,25.4,6.1,25.3,6.1z M15.4,10.4l10,9.2
		l-9.7-9.4C15.5,10.3,15.4,10.4,15.4,10.4z M13.5,13l11.8,6.6l-11.6-6.9C13.6,12.8,13.6,12.9,13.5,13z M14.4,11.7l11,7.9l-10.8-8.2
		C14.5,11.5,14.4,11.6,14.4,11.7z M12.8,14.4l12.5,5.2L13,14.1C12.9,14.2,12.9,14.3,12.8,14.4z M12.3,15.9l13,3.7l-12.9-4.1
		C12.4,15.7,12.3,15.8,12.3,15.9z M11.8,19l13.5,0.6l-13.5-1C11.8,18.8,11.8,18.9,11.8,19z M23.6,6.2l1.8,13.4L23.9,6.1
		C23.8,6.1,23.7,6.2,23.6,6.2z M22,6.5l3.3,13.2L22.4,6.4C22.3,6.4,22.2,6.4,22,6.5z M17.7,8.4l7.6,11.2L18,8.2
		C17.9,8.3,17.8,8.3,17.7,8.4z M19.1,7.6l6.2,12L19.4,7.4C19.3,7.5,19.2,7.5,19.1,7.6z M20.5,6.9l4.8,12.7L20.9,6.8
		C20.8,6.9,20.6,6.9,20.5,6.9z"/>
	
		<radialGradient id="SVGID_16_" cx="-892.6324" cy="-1384.0293" r="1.3873" gradientTransform="matrix(0.1659 6.9612 -0.9997 2.380000e-02 -1194.7551 6265.0684)" gradientUnits="userSpaceOnUse">
		<stop  offset="0" style="stop-color:#CBCBCB"/>
		<stop  offset="0.1398" style="stop-color:#6E6E6E"/>
		<stop  offset="0.1419" style="stop-color:#6D6D6D"/>
		<stop  offset="0.2468" style="stop-color:#4C4C4C"/>
		<stop  offset="0.3583" style="stop-color:#303030"/>
		<stop  offset="0.4792" style="stop-color:#1B1B1B"/>
		<stop  offset="0.6128" style="stop-color:#0C0C0C"/>
		<stop  offset="0.7686" style="stop-color:#030303"/>
		<stop  offset="1" style="stop-color:#000000"/>
	</radialGradient>
	<path class="st15" d="M41,28c-0.8,0-1.5-4.3-1.6-9.6c-0.1-5.3,0.4-9.7,1.2-9.7c0.8,0,1.5,4.3,1.6,9.6C42.3,23.6,41.8,28,41,28z"/>
	<g>
		<g>
			<linearGradient id="SVGID_17_" gradientUnits="userSpaceOnUse" x1="24.1731" y1="7.8763" x2="30.3452" y2="15.5634">
				<stop  offset="0" style="stop-color:#DAA520"/>
				<stop  offset="2.318059e-02" style="stop-color:#DEAC2F"/>
				<stop  offset="0.151" style="stop-color:#F1CF7E"/>
				<stop  offset="0.2097" style="stop-color:#F9DD9D"/>
				<stop  offset="0.4462" style="stop-color:#916503"/>
				<stop  offset="0.6667" style="stop-color:#FFD169"/>
				<stop  offset="1" style="stop-color:#DAA520"/>
			</linearGradient>
			<polygon class="st16" points="26.3,10.6 25.5,10.2 24.8,10.6 25,9.7 24.3,9.1 25.2,9.1 25.5,8.2 25.9,9.1 26.8,9.1 26.1,9.7 			
				"/>
			<linearGradient id="SVGID_18_" gradientUnits="userSpaceOnUse" x1="25.5414" y1="6.7772" x2="31.7142" y2="14.465">
				<stop  offset="0" style="stop-color:#DAA520"/>
				<stop  offset="2.318059e-02" style="stop-color:#DEAC2F"/>
				<stop  offset="0.151" style="stop-color:#F1CF7E"/>
				<stop  offset="0.2097" style="stop-color:#F9DD9D"/>
				<stop  offset="0.4462" style="stop-color:#916503"/>
				<stop  offset="0.6667" style="stop-color:#FFD169"/>
				<stop  offset="1" style="stop-color:#DAA520"/>
			</linearGradient>
			<polygon class="st17" points="28.4,10.4 27.9,10.1 27.4,10.4 27.5,9.8 27.1,9.5 27.7,9.4 27.9,8.8 28.2,9.4 28.8,9.4 28.3,9.8 
							"/>
			<linearGradient id="SVGID_19_" gradientUnits="userSpaceOnUse" x1="22.5861" y1="9.1501" x2="28.7589" y2="16.8379">
				<stop  offset="0" style="stop-color:#DAA520"/>
				<stop  offset="2.318059e-02" style="stop-color:#DEAC2F"/>
				<stop  offset="0.151" style="stop-color:#F1CF7E"/>
				<stop  offset="0.2097" style="stop-color:#F9DD9D"/>
				<stop  offset="0.4462" style="stop-color:#916503"/>
				<stop  offset="0.6667" style="stop-color:#FFD169"/>
				<stop  offset="1" style="stop-color:#DAA520"/>
			</linearGradient>
			<polygon class="st18" points="23.6,10.4 23.1,10.1 22.5,10.4 22.7,9.8 22.2,9.5 22.8,9.4 23.1,8.8 23.3,9.4 23.9,9.4 23.4,9.8 
							"/>
		</g>
		<g>
			<linearGradient id="SVGID_20_" gradientUnits="userSpaceOnUse" x1="22.5955" y1="26.5373" x2="30.031" y2="34.8514">
				<stop  offset="0" style="stop-color:#DAA520"/>
				<stop  offset="2.318059e-02" style="stop-color:#DEAC2F"/>
				<stop  offset="0.151" style="stop-color:#F1CF7E"/>
				<stop  offset="0.2097" style="stop-color:#F9DD9D"/>
				<stop  offset="0.4462" style="stop-color:#916503"/>
				<stop  offset="0.6667" style="stop-color:#FFD169"/>
				<stop  offset="1" style="stop-color:#DAA520"/>
			</linearGradient>
			<polygon class="st19" points="26.2,28.7 25.4,29.2 24.7,28.7 24.9,29.6 24.2,30.2 25.1,30.3 25.4,31.1 25.8,30.3 26.7,30.2 
				26,29.6 			"/>
			<linearGradient id="SVGID_21_" gradientUnits="userSpaceOnUse" x1="21.3484" y1="27.6538" x2="28.7827" y2="35.9666">
				<stop  offset="0" style="stop-color:#DAA520"/>
				<stop  offset="2.318059e-02" style="stop-color:#DEAC2F"/>
				<stop  offset="0.151" style="stop-color:#F1CF7E"/>
				<stop  offset="0.2097" style="stop-color:#F9DD9D"/>
				<stop  offset="0.4462" style="stop-color:#916503"/>
				<stop  offset="0.6667" style="stop-color:#FFD169"/>
				<stop  offset="1" style="stop-color:#DAA520"/>
			</linearGradient>
			<polygon class="st20" points="23.6,28.9 23.1,29.2 22.5,28.9 22.7,29.5 22.2,29.9 22.8,29.9 23.1,30.5 23.3,29.9 23.9,29.9 
				23.4,29.5 			"/>
			<linearGradient id="SVGID_22_" gradientUnits="userSpaceOnUse" x1="24.0484" y1="25.2379" x2="31.4836" y2="33.5517">
				<stop  offset="0" style="stop-color:#DAA520"/>
				<stop  offset="2.318059e-02" style="stop-color:#DEAC2F"/>
				<stop  offset="0.151" style="stop-color:#F1CF7E"/>
				<stop  offset="0.2097" style="stop-color:#F9DD9D"/>
				<stop  offset="0.4462" style="stop-color:#916503"/>
				<stop  offset="0.6667" style="stop-color:#FFD169"/>
				<stop  offset="1" style="stop-color:#DAA520"/>
			</linearGradient>
			<polygon class="st21" points="28.3,29.5 28.4,28.9 27.9,29.2 27.4,28.9 27.5,29.5 27.1,29.9 27.7,29.9 27.9,30.5 28.2,29.9 
				28.8,29.9 			"/>
		</g>
	</g>
	<g>
		<linearGradient id="SVGID_23_" gradientUnits="userSpaceOnUse" x1="22.4518" y1="28.833" x2="22.4518" y2="19.1209">
			<stop  offset="0" style="stop-color:#DAA520"/>
			<stop  offset="2.318059e-02" style="stop-color:#DEAC2F"/>
			<stop  offset="0.151" style="stop-color:#F1CF7E"/>
			<stop  offset="0.2097" style="stop-color:#F9DD9D"/>
			<stop  offset="0.4462" style="stop-color:#916503"/>
			<stop  offset="0.6667" style="stop-color:#FFD169"/>
			<stop  offset="1" style="stop-color:#DAA520"/>
		</linearGradient>
		<path class="st22" d="M21.5,24.4l-1.7-7.7h-0.1c0.1,0.6,0.1,1.1,0.1,1.6v6.1h-1.6v-9.1h2.6l1.6,7.1h0l1.5-7.1h2.6v9.1H25v-6.2
			c0-0.5,0-1,0.1-1.6h0l-1.7,7.7H21.5z"/>
		<linearGradient id="SVGID_24_" gradientUnits="userSpaceOnUse" x1="30.7199" y1="28.833" x2="30.7199" y2="19.1209">
			<stop  offset="0" style="stop-color:#DAA520"/>
			<stop  offset="2.318059e-02" style="stop-color:#DEAC2F"/>
			<stop  offset="0.151" style="stop-color:#F1CF7E"/>
			<stop  offset="0.2097" style="stop-color:#F9DD9D"/>
			<stop  offset="0.4462" style="stop-color:#916503"/>
			<stop  offset="0.6667" style="stop-color:#FFD169"/>
			<stop  offset="1" style="stop-color:#DAA520"/>
		</linearGradient>
		<path class="st23" d="M33.2,18.1c0,1-0.2,1.7-0.7,2.2c-0.5,0.5-1.2,0.8-2.1,0.8h-0.4v3.3h-1.7v-9.1h2.3
			C32.3,15.3,33.2,16.3,33.2,18.1z M29.9,19.7h0.3c0.4,0,0.7-0.1,0.9-0.3c0.2-0.2,0.3-0.6,0.3-1.1c0-0.5-0.1-0.8-0.3-1.1
			s-0.5-0.3-0.9-0.3h-0.4V19.7z"/>
	</g>
</g>
</svg>
