<?xml version="1.0" encoding="utf-8"?>
<!-- Generator: Adobe Illustrator 21.0.0, SVG Export Plug-In . SVG Version: 6.00 Build 0)  -->
<svg version="1.1" id="Layer_1" xmlns="http://www.w3.org/2000/svg" xmlns:xlink="http://www.w3.org/1999/xlink" x="0px" y="0px"
	 viewBox="0 0 32 32" style="enable-background:new 0 0 32 32;" xml:space="preserve">
<style type="text/css">
	.st0{fill:url(#SVGID_1_);}
	.st1{fill:#AEAEA5;}
	.st2{fill:url(#SVGID_2_);}
	.st3{fill:url(#SVGID_3_);}
	.st4{fill:url(#SVGID_4_);}
	.st5{fill:url(#SVGID_5_);}
</style>
<linearGradient id="SVGID_1_" gradientUnits="userSpaceOnUse" x1="9.7141" y1="15.3238" x2="21.5086" y2="15.3238">
	<stop  offset="0" style="stop-color:#67C6B9"/>
	<stop  offset="1" style="stop-color:#32BFC9"/>
</linearGradient>
<ellipse class="st0" cx="15.6" cy="15.3" rx="5.9" ry="5.9"/>
<path class="st1" d="M20,19.2l-0.3,0.4c1.9,4.9,2.6,8.6,1.8,9c-1.1,0.5-4.7-4.7-8-11.7S8.7,3.7,9.8,3.2c0.8-0.4,2.8,2.2,5.2,6.2
	l0.6,0c-3-5.4-5.7-9-6.7-8.5c-1.4,0.7,0.6,7.8,4.4,16.1c3.8,8.2,8,14.3,9.3,13.7C23.6,30.2,22.5,25.4,20,19.2z"/>
<path class="st1" d="M30.5,20.9c-0.3-0.6-3.9-2.4-9-4.6l-0.1,0.2c3.9,1.7,6.6,3.2,6.8,3.6c0.3,0.6-5.2-1.1-12.2-4
	C9,13.3,3.1,10.4,2.8,9.8c-0.2-0.5,3.1,0.5,7.9,2.3l0.1-0.2C4.6,9.6,0.3,8.3,0.6,8.9C1,9.7,7.9,13,16.2,16.3
	C24.4,19.7,30.8,21.7,30.5,20.9z"/>
<g>
	<path class="st1" d="M25.7,0.8c-1.1-0.7-4.9,3-9.2,8.7l0.7,0.1c3.5-4.4,6.7-7.3,7.4-6.8c1,0.6-2.1,6.3-6.5,12.6
		c-4.4,6.3-8.7,10.9-9.7,10.3c-0.7-0.4,0.4-3.2,2.5-6.9l-0.4-0.6c-3,5-4.5,8.9-3.5,9.5c1.3,0.8,6.5-4.5,11.6-12
		C23.8,8.4,27,1.7,25.7,0.8z"/>
</g>
<linearGradient id="SVGID_2_" gradientUnits="userSpaceOnUse" x1="1.9162" y1="10.6716" x2="3.9631" y2="10.6716">
	<stop  offset="0" style="stop-color:#67C6B9"/>
	<stop  offset="1" style="stop-color:#32BFC9"/>
</linearGradient>
<ellipse class="st2" cx="2.9" cy="10.7" rx="1" ry="1"/>
<linearGradient id="SVGID_3_" gradientUnits="userSpaceOnUse" x1="20.9887" y1="25.0482" x2="23.0357" y2="25.0482">
	<stop  offset="0" style="stop-color:#67C6B9"/>
	<stop  offset="1" style="stop-color:#32BFC9"/>
</linearGradient>
<ellipse class="st3" cx="22" cy="25" rx="1" ry="1"/>
<path class="st1" d="M32,10.4c-0.2-1.5-5.5-1.2-12.5,0.5c0.1,0.1,0.2,0.2,0.4,0.4c5.5-1.2,9.7-1.3,9.9-0.2c0.2,1.4-6,4.6-13.5,6.9
	S2.6,20.5,2.4,19.2c-0.1-1,2.9-2.9,7.4-4.7c0-0.2,0.1-0.4,0.1-0.6c-5.9,2.2-10.1,4.6-9.9,6c0.2,1.7,7.6,1,16.4-1.6
	C25.3,15.7,32.2,12.2,32,10.4z"/>
<linearGradient id="SVGID_4_" gradientUnits="userSpaceOnUse" x1="4.9054" y1="20.493" x2="6.9524" y2="20.493">
	<stop  offset="0" style="stop-color:#67C6B9"/>
	<stop  offset="1" style="stop-color:#32BFC9"/>
</linearGradient>
<ellipse class="st4" cx="5.9" cy="20.5" rx="1" ry="1"/>
<linearGradient id="SVGID_5_" gradientUnits="userSpaceOnUse" x1="18.3244" y1="7.1502" x2="20.3714" y2="7.1502">
	<stop  offset="0" style="stop-color:#67C6B9"/>
	<stop  offset="1" style="stop-color:#32BFC9"/>
</linearGradient>
<ellipse class="st5" cx="19.3" cy="7.2" rx="1" ry="1"/>
</svg>
