<?xml version="1.0" encoding="utf-8"?>
<!-- Generator: Adobe Illustrator 21.0.0, SVG Export Plug-In . SVG Version: 6.00 Build 0)  -->
<svg version="1.1" id="Layer_1" xmlns="http://www.w3.org/2000/svg" xmlns:xlink="http://www.w3.org/1999/xlink" x="0px" y="0px"
	 width="32px" height="32px" viewBox="0 0 32 32" style="enable-background:new 0 0 32 32;" xml:space="preserve">
<style type="text/css">
	.st0{fill:#DAA520;}
</style>
<path class="st0" d="M29.1,9.9c0,0,0-5.7,0-7S28.5,1.3,28,1.2c-1.3-0.1-1.6,1.4-1.6,1.4C22.4,7,13,8.2,13,8.2V7H4.6
	C2,7.4,2,9.5,2,9.5v1.7H1.2c-1,0-1.1,0.9-1.1,0.9S0,14.9,0,15.8s0.9,1,0.9,1l1,0.1c-0.1,1.6,0.3,2.4,0.5,2.8
	c1.1,1.5,3.1,1.2,3.1,1.2L8.9,32l2.8-0.6L10.3,21H13v-1.3c9.3,1.3,13.6,6,13.6,6s0.1,1.2,1.2,1.2c1.2,0,1.4-1.1,1.4-1.1l-0.1-7.7
	c0,0,2.4-0.6,2.9-3.7C32.4,11.5,29.1,9.9,29.1,9.9z M10,17.7H4.9v-7.6H10V17.7z"/>
</svg>
