<?xml version="1.0" encoding="utf-8"?>
<!-- Generator: Adobe Illustrator 21.0.0, SVG Export Plug-In . SVG Version: 6.00 Build 0)  -->
<svg version="1.1" id="Layer_1" xmlns="http://www.w3.org/2000/svg" xmlns:xlink="http://www.w3.org/1999/xlink" x="0px" y="0px"
	 width="32px" height="32px" viewBox="0 0 32 32" style="enable-background:new 0 0 32 32;" xml:space="preserve">
<style type="text/css">
	.st0{fill:#DAA520;}
</style>
<path class="st0" d="M0.3,17.7l3.9-8.9l2.7,1c0,0,0.6,0,0.2,1.1c-0.3,1-2.8,7.1-2.8,7.1S4.1,18.9,3,18.6C1.9,18.4,0.3,17.7,0.3,17.7
	z"/>
<path class="st0" d="M7.8,11l2.1,0.7c0.1,0,0.1,0,0.2,0c0.3,0,1.5-0.1,2-0.4c0,0,0,0.2-0.1,0.4s-0.4,0.9-0.4,0.9s-0.3,0.6-0.7,1.1
	s-0.7,1-0.6,1.3c0.1,0.3,0.7,1.1,1.7,0.9c1.1-0.2,1.4-0.5,1.9-1.2s1-1.7,2.4-1.7c0.4,0,0.8,0.1,1.1,0.4c0.3,0.3,0.7,0.5,0.7,0.5
	s1.7,1,2.1,1.2c0.3,0.2,1.6,1,1.6,1s0.8,0.5,1.2,0.6s2.3,1,2.6,2.2c0,0.2,0.2,1.3-1,1.7c-0.2,0-0.6,0-1.4-0.4h-0.1
	c0.1,0.3,0.4,1.3,0,1.9s-1.2,0.6-1.5,0.5c-0.1,0-0.1,0-0.1,0.1c0.1,0.3,0.2,1.2-0.7,1.6c-0.1,0-0.6,0.1-1.3-0.2c0,0-0.1,0-0.1,0.1
	c0,0.3-0.3,0.9-1.2,1c-0.3,0-1.2-0.2-1.3-0.3c0-0.1,0.1-0.8,0.1-0.8s0.1-1.3-1.2-1.4c-0.2,0-0.4,0.1-0.5-0.4s0-1.4-1.7-1.3
	c-0.2,0-0.3,0.1-0.5-0.2c-0.2-0.3-0.9-0.8-1.9-0.5l-0.6,0.3h-0.1c-0.2-0.2-0.6-0.7-1.2-0.9c-0.6-0.2-1.1,0-1.4,0.4l0,0
	c-0.1-0.1-0.3-0.2-0.7-0.4c-0.4-0.2-0.4-0.2-0.4-0.2S6.3,19,6.1,18.9c-0.2-0.1-0.9-0.5-1.2-0.5L7.8,11z"/>
<path class="st0" d="M8.4,20.7c0,0-0.1-0.5,0.3-0.6s1.5,0.1,1.6,1.6c0,0.3-0.2,0.9-1,0.4C9.1,22.1,8.3,21.6,8.4,20.7z"/>
<path class="st0" d="M11.1,20.9c0,0,1.1-0.6,1.6,0.4c0.1,0.1,0.4,1-0.5,2.2c-0.2,0.2-1.1,0.7-1.6,0.1S10.3,21.5,11.1,20.9z"/>
<path class="st0" d="M13.2,21.9c0,0,0.2-0.3,0.5-0.3c0.4,0,0.9,0.1,1,0.4s0.1,0.7,0.2,0.8c0.1,0.2,0.1,0.5-0.2,0.9
	c-0.2,0.4-0.8,1.3-1.7,1c-0.2-0.1-0.8-0.9-0.3-2.1L13.2,21.9z"/>
<path class="st0" d="M15.3,23.4c0,0,0.4-0.4,0.8-0.1c0.5,0.4,0.6,1.1,0.4,1.7s-0.9,0.8-1.5,0.4C14.9,25.2,14.5,24.4,15.3,23.4z"/>
<path class="st0" d="M11.1,14.3c0,0-0.4,0.5-0.1,0.7c0.3,0.2,1.2,0.9,2.2-0.1s1.1-1.6,1.5-1.8c0.4-0.3,1.3-0.6,1.7-0.6
	s0.9,0.1,1.5,0.6c0.7,0.5,0.8,0.6,1.2,0.7s1.9,1.2,2.2,1.4c0.3,0.2,1.3,0.8,1.6,1c0.4,0.1,1.7,0.7,2.1,1s0.6,0.6,0.7,0.5
	s0.6-0.4,0.8-0.6c0.1-0.1,0.7-0.7,0.8-0.8c0.1-0.1,0.3-0.2,0.4-0.3c0.1,0,0.2,0,0.1-0.2c-0.2-0.2-0.9-1.1-1.2-2.5
	c-0.3-1.3-1-3.4-1.1-3.7s-0.2-1.2-0.2-1.2s-0.1,0-0.4,0.2c-0.3,0.1-1.4,0.7-1.8,0.7s-3.3,0.1-4,0.1s-2.5-0.3-3-0.1l-0.3,0.1
	c-0.1,0.1-0.3,0.1-0.4,0.3c-0.1,0.1-0.3,0.3-0.6,0.4c-0.4,0.2-0.8,0.4-1,0.5s-0.8,0.3-1.2,0.9L12.3,12c0,0.1-0.1,0.2-0.1,0.2
	c0,0.1-0.1,0.4-0.2,0.6C11.9,13.3,11.5,14,11.1,14.3z"/>
<path class="st0" d="M28.3,6.5l0.3-0.1c0,0,0.5,1.5,0.6,1.7c0.1,0.2,1.6,4.6,1.6,4.6l0.8,2.4c0,0-1.1,0.4-1.6,0.5s-0.9,0.5-1.3,0.2
	s-1-0.8-1.3-1.7s-1.1-3.5-1.1-3.5l-0.6-2.2c0,0-0.2-0.6,0.3-0.8c0.5-0.2,1.7-0.8,1.7-0.8L28.3,6.5z"/>
</svg>
