<?xml version="1.0" encoding="utf-8"?>
<!-- Generator: Adobe Illustrator 21.0.0, SVG Export Plug-In . SVG Version: 6.00 Build 0)  -->
<svg version="1.1" id="Layer_1" xmlns="http://www.w3.org/2000/svg" xmlns:xlink="http://www.w3.org/1999/xlink" x="0px" y="0px"
	 width="32px" height="32px" viewBox="0 0 32 32" style="enable-background:new 0 0 32 32;" xml:space="preserve">
<style type="text/css">
	.st0{fill:#DAA520;}
	.st1{fill:#20232A;}
</style>
<g>
	<path class="st0" d="M10.7,8c0,0-1.8-3.9,3.1-6.9c0.9-0.5,1.9-0.7,2.9-0.5C18,0.8,19.1,1.1,20,2.4c0.1,0.1,0.2,0.2,0.3,0.2
		c0.6,0.2,2.3,1,1.3,5.7c0,0,0.7,0.2,0.3,1.6s-0.8,2.5-1.3,2.1c0,0-0.5,1.7-0.6,1.9s0,2.1,0,2.1s0,0.2,0.3,0.3
		c0.4,0.2,6.3,3.5,7,4.8s0.9,1.6,0.7,4.2c0,0-0.3,0.7-1,0.7s-4.4,0-4.4,0s0.4-4.1-4-6.1s-9.4,1.6-9.3,6.2H4.9c0,0-1-0.1-1-1.4
		c0-1.2-0.1-3.2,1.7-4.5s4.3-3,6.4-4.1l0.1-1.9c0,0-0.6-1.3-0.9-2.4c0,0-0.7-0.3-1.2-2.6C10,9.2,9.7,7.9,10.7,8z"/>
	<circle class="st0" cx="16" cy="25.9" r="5.5"/>
	<path class="st1" d="M18.3,29l-1.9-0.8c-0.1,0-0.1,0-0.2,0l-1.7,1.1c-0.2,0.1-0.4,0-0.3-0.2l0.1-2c0-0.1,0-0.1-0.1-0.2l-1.6-1.3
		c-0.1-0.1-0.1-0.3,0.1-0.4l2-0.5c0.1,0,0.1-0.1,0.2-0.1l0.7-1.9c0.1-0.2,0.3-0.2,0.4,0l1.1,1.7c0,0.1,0.1,0.1,0.2,0.1l2.1,0.1
		c0.2,0,0.3,0.2,0.2,0.4l-1.3,1.6c0,0.1-0.1,0.1,0,0.2l0.6,2C18.7,28.9,18.5,29,18.3,29z"/>
</g>
</svg>
