<?xml version="1.0" encoding="utf-8"?>
<!-- Generator: Adobe Illustrator 21.0.0, SVG Export Plug-In . SVG Version: 6.00 Build 0)  -->
<svg version="1.1" id="Layer_1" xmlns="http://www.w3.org/2000/svg" xmlns:xlink="http://www.w3.org/1999/xlink" x="0px" y="0px"
	 viewBox="0 0 32 32" style="enable-background:new 0 0 32 32;" xml:space="preserve">
<style type="text/css">
	.st0{fill:#3B8473;}
</style>
<path class="st0" d="M9.7,10.1L9.5,8.1c0,0-5.8-0.9-7.5,2.4c-0.3,0.7-0.7,2.2,0.2,4.2c0,0-3.4,3.9-0.5,8.7s8.2,3.4,9,2.8
	c0,0-3.1-3.6-2.8-8.5c0.1-0.9,0.6-4,1.7-5.5c0,0-3-0.9-5.8,1.1c0,0-0.6-1.8,0.6-2.6C4.7,10.5,6.4,9.4,9.7,10.1z"/>
<path class="st0" d="M29.4,11.7c-0.1-0.1-0.1-0.3-0.1-0.4c1.3-3.2,0.9-5.6-0.9-7.5c-1.9-1.9-10-3.5-14-0.6s-1.6,7.9-1.6,7.9
	c0.1,0.2-0.1,0.3-0.1,0.3s-0.8,1-1.3,1.9c-1.2,2.5-2,8.5,1.4,12s6.3,3.9,10.2,3.5c3.9-0.5,7.9-4.6,8.4-8.7
	C32.1,15.4,30,12.5,29.4,11.7z M27,9.5c0,0-2.6-2.1-6.4-2c0,0-2.8,0-5.3,1.6c0,0-0.1,0.3-0.3,0.1c0,0-1.4-3.5,2.5-4.6
	c3.4-1,7.7-0.7,9.5,1.6C27.3,6.9,27.5,8.5,27,9.5z"/>
</svg>
