<?xml version="1.0" encoding="utf-8"?>
<!-- Generator: Adobe Illustrator 21.0.0, SVG Export Plug-In . SVG Version: 6.00 Build 0)  -->
<svg version="1.1" id="Layer_1" xmlns="http://www.w3.org/2000/svg" xmlns:xlink="http://www.w3.org/1999/xlink" x="0px" y="0px"
	 viewBox="0 0 32 32" style="enable-background:new 0 0 32 32;" xml:space="preserve">
<style type="text/css">
	.st0{fill:#387E6F;}
</style>
<g>
	<path class="st0" d="M7.6,4.5v22.8L5.2,25l-1.3,1.3l4.3,4.4c0,0,0.4,0.4,0.9,0s4.5-4.5,4.5-4.5l-1.4-1.4l-2.5,2.5l0-22.8L12.2,7
		l1.4-1.4L9.4,1.5c0,0-0.7-0.9-1.5,0c-1,1-4,4.1-4,4.1L5.2,7L7.6,4.5z"/>
	<circle class="st0" cx="4.6" cy="6.2" r="1"/>
	<circle class="st0" cx="12.7" cy="6.1" r="1"/>
	<circle class="st0" cx="4.6" cy="25.7" r="1"/>
	<circle class="st0" cx="12.7" cy="25.6" r="1"/>
</g>
<circle class="st0" cx="23.8" cy="3.4" r="3.2"/>
<path class="st0" d="M21.8,8.1c0,0-2.7,0.3-2.9,3.2v7.9c0,0,0.2,2,1.7,2.6l0,8.4c0,0,0,1.1,1.5,1.6h3.4c0,0,1.4-0.2,1.4-1.9
	s0-8.1,0-8.1s1.5-0.5,1.6-3.2c0-2.7,0-7.7,0-7.7s0-1.8-2.1-2.6c-0.3-0.1-0.7-0.2-1.1-0.2H21.8z"/>
</svg>
