<?xml version="1.0" encoding="utf-8"?>
<!-- Generator: Adobe Illustrator 21.0.0, SVG Export Plug-In . SVG Version: 6.00 Build 0)  -->
<svg version="1.1" id="Layer_1" xmlns="http://www.w3.org/2000/svg" xmlns:xlink="http://www.w3.org/1999/xlink" x="0px" y="0px"
	 viewBox="0 0 32 32" style="enable-background:new 0 0 32 32;" xml:space="preserve">
<style type="text/css">
	.st0{fill:#6DC7B5;}
</style>
<g>
	<path class="st0" d="M17.8,4.7h-2.3c-0.5,0-0.8-0.4-0.8-0.8V2c0-1.1,0.9-2,2-2h0c1.1,0,2,0.9,2,2v1.9C18.7,4.3,18.3,4.7,17.8,4.7z"
		/>
	<path class="st0" d="M15.5,27.3h2.3c0.5,0,0.8,0.4,0.8,0.8V30c0,1.1-0.9,2-2,2h0c-1.1,0-2-0.9-2-2v-1.9
		C14.7,27.7,15.1,27.3,15.5,27.3z"/>
	<path class="st0" d="M8.4,20.4h3.9c0.4,0,0.7,0.3,0.8,0.7c0.1,1,0.4,2.6,2.1,3.1c0.2,0.1,2.9,0.8,3.5-1.5c0.2-1,0.5-3-2.3-4.1
		c-0.7-0.3-4-1.5-5.6-2.8s-2.3-2.2-2.5-5.1c0,0-0.3-2.8,1.9-4.9c0.6-0.6,2.9-2.8,8.7-1.9c0.5,0.1,5.3,1.1,5.7,6.8c0,0,0,0.8-0.9,0.8
		c-1,0-4,0-4,0s-0.6,0.1-0.8-0.8S18.4,8,16.4,7.8c-0.5-0.1-2.2,0-2.4,2.1c0,0.5-0.2,2,1,2.8c0.3,0.2,1,0.7,1.8,1s4.2,1.8,5.8,3.4
		c1.6,1.6,2,3.7,1.7,6.1c0,0-0.5,4.3-5.7,5.2c-0.3,0.1-5.6,0.9-8.8-1.8c-0.7-0.7-2.3-1.9-2.5-5.2c0,0,0,0,0-0.1
		C7.4,20.8,7.8,20.4,8.4,20.4z"/>
</g>
</svg>
