<?xml version="1.0" encoding="utf-8"?>
<!-- Generator: Adobe Illustrator 21.0.0, SVG Export Plug-In . SVG Version: 6.00 Build 0)  -->
<svg version="1.1" id="Layer_1" xmlns="http://www.w3.org/2000/svg" xmlns:xlink="http://www.w3.org/1999/xlink" x="0px" y="0px"
	 viewBox="0 0 32 32" style="enable-background:new 0 0 32 32;" xml:space="preserve">
<style type="text/css">
	.st0{fill:#3E887B;}
	.st1{fill:#C463A6;}
	.st2{fill:#2A2D35;}
</style>
<path class="st0" d="M10.7,8c0,0-1.8-3.9,3.1-6.9c0.9-0.5,1.9-0.7,2.9-0.5c1.3,0.2,2.4,0.5,3.3,1.8c0.1,0.1,0.2,0.2,0.3,0.2
	c0.6,0.2,2.3,1,1.3,5.7c0,0,0.7,0.2,0.3,1.6s-0.8,2.5-1.3,2.1c0,0-0.5,1.7-0.6,1.9c-0.1,0.2,0,2.1,0,2.1s0,0.2,0.3,0.3
	c0.4,0.2,6.3,3.5,7,4.8s0.9,1.6,0.7,4.2c0,0-0.3,0.7-1,0.7s-4.4,0-4.4,0s0.4-4.1-4-6.1s-9.4,1.6-9.3,6.2H4.9c0,0-1-0.1-1-1.4
	c0-1.2-0.1-3.2,1.7-4.5c1.8-1.3,4.3-3,6.4-4.1l0.1-1.9c0,0-0.6-1.3-0.9-2.4c0,0-0.7-0.3-1.2-2.6C10,9.2,9.7,7.9,10.7,8z"/>
<circle class="st1" cx="16" cy="25.9" r="5.5"/>
<g>
	<path class="st2" d="M11.8,24.6v3.1c0,0.1,0,0.1,0.1,0.1h1.6c0,0,0,0,0.1,0l1.8,1.4c0.1,0.1,0.2,0,0.2-0.1v-6
		c0-0.1-0.1-0.1-0.2-0.1l-1.7,1.5h-1.8C11.8,24.5,11.8,24.5,11.8,24.6z"/>
	<path class="st2" d="M20.1,28L20.1,28c-0.2,0.2-0.5,0.2-0.7,0l-3-3c-0.2-0.2-0.2-0.5,0-0.7l0,0c0.2-0.2,0.5-0.2,0.7,0l3,3
		C20.3,27.5,20.3,27.8,20.1,28z"/>
	<path class="st2" d="M20,24.3L20,24.3c0.2,0.2,0.2,0.5,0,0.7l-3,3c-0.2,0.2-0.5,0.2-0.7,0v0c-0.2-0.2-0.2-0.5,0-0.7l3-3
		C19.6,24.1,19.9,24.1,20,24.3z"/>
</g>
</svg>
