<?xml version="1.0" encoding="utf-8"?>
<!-- Generator: Adobe Illustrator 21.0.0, SVG Export Plug-In . SVG Version: 6.00 Build 0)  -->
<svg version="1.1" id="Layer_1" xmlns="http://www.w3.org/2000/svg" xmlns:xlink="http://www.w3.org/1999/xlink" x="0px" y="0px"
	 width="32px" height="32px" viewBox="0 0 32 32" style="enable-background:new 0 0 32 32;" xml:space="preserve">
<style type="text/css">
	.st0{fill:#DAA520;}
</style>
<path class="st0" d="M16,0.2c-5,0-9,4-9,9v4.5H6.6c-1.6,0-2.9,1.3-2.9,2.9v12.3c0,1.6,1.3,2.9,2.9,2.9h18.7c1.6,0,2.9-1.3,2.9-2.9
	V16.6c0-1.6-1.3-2.9-2.9-2.9H25V9.2C25,4.2,21,0.2,16,0.2L16,0.2z M9.3,9.2c0-3.7,3-6.8,6.8-6.8s6.8,3,6.8,6.8v4.5H9.3V9.2z
	 M26,16.6v12.3c0,0.4-0.3,0.7-0.7,0.7H6.7c-0.4,0-0.7-0.3-0.7-0.7V16.6c0-0.4,0.3-0.7,0.7-0.7h18.7C25.7,15.9,26,16.2,26,16.6
	L26,16.6z"/>
<path class="st0" d="M16.9,25.5v-2.2c0-0.2,0-0.3,0.2-0.4c0.5-0.3,0.7-0.8,0.7-1.4c0-0.8-0.6-1.5-1.4-1.7l0,0
	c-0.7-0.1-1.5,0.3-1.9,1c-0.3,0.7-0.1,1.6,0.6,2.1c0.1,0.1,0.2,0.2,0.2,0.3v2.2h1.6V25.5z"/>
</svg>
