<?xml version="1.0" encoding="utf-8"?>
<!-- Generator: Adobe Illustrator 21.0.0, SVG Export Plug-In . SVG Version: 6.00 Build 0)  -->
<svg version="1.1" id="Layer_1" xmlns="http://www.w3.org/2000/svg" xmlns:xlink="http://www.w3.org/1999/xlink" x="0px" y="0px"
	 viewBox="0 0 32 32" style="enable-background:new 0 0 32 32;" xml:space="preserve">
<style type="text/css">
	.st0{fill:#458D7B;}
</style>
<g>
	<path class="st0" d="M0,21.7l0,1.5c0,0.3,0.2,0.4,0.5,0.4C4,23.3,26.7,20.3,29.1,6.9c0-0.2,0.2-0.3,0.3-0.3h2.3
		c0.3,0,0.4-0.3,0.2-0.5L26,0.4c-0.1-0.1-0.3-0.1-0.4,0l-5.3,5.5c-0.2,0.2,0,0.5,0.2,0.5h2.2c0.2,0,0.3,0.1,0.3,0.3
		c0.1,1.8-0.4,11-22.7,14.6C0.2,21.3,0,21.5,0,21.7z"/>
	<path class="st0" d="M23.3,19.1v12c0,0.3,0.3,0.6,0.6,0.6h3.2c0.4,0,0.7-0.3,0.7-0.7V14.4c0-0.2-0.2-0.2-0.3-0.1
		c-1,1.6-2.3,3-3.9,4.2C23.4,18.7,23.3,18.9,23.3,19.1z"/>
	<path class="st0" d="M7.9,31.7h4c0.2,0,0.4-0.2,0.4-0.4l0-6.5c0-0.2-0.1-0.3-0.2-0.4l-0.1-0.1c-0.1,0-0.2,0-0.3,0
		c-1.4,0.4-2.7,0.8-3.9,1.1c-0.2,0-0.3,0.2-0.3,0.3v5.6C7.6,31.5,7.7,31.7,7.9,31.7z"/>
	<path class="st0" d="M15.9,31.7h3.5c0.3,0,0.6-0.3,0.6-0.6c0,0,0-7.5,0-9.9c0-0.1-0.4-0.1-0.4-0.1c-0.1,0-0.1,0-0.2,0.1
		c-1.2,0.6-2.4,1.2-3.7,1.7c-0.2,0.1-0.4,0.3-0.4,0.6v7.8C15.5,31.5,15.7,31.7,15.9,31.7z"/>
	<path class="st0" d="M0.2,31.7h4.1c0.1,0,0.2-0.1,0.2-0.2v-5.1c0-0.1-0.1-0.2-0.2-0.2c-1.9,0.3-3.5,0.4-4.1,0.5
		c-0.1,0-0.2,0.1-0.2,0.2v4.6C0,31.6,0.1,31.7,0.2,31.7z"/>
</g>
</svg>
