<?xml version="1.0" encoding="utf-8"?>
<!-- Generator: Adobe Illustrator 21.0.0, SVG Export Plug-In . SVG Version: 6.00 Build 0)  -->
<svg version="1.1" id="Layer_1" xmlns="http://www.w3.org/2000/svg" xmlns:xlink="http://www.w3.org/1999/xlink" x="0px" y="0px"
	 width="32px" height="32px" viewBox="0 0 32 32" style="enable-background:new 0 0 32 32;" xml:space="preserve">
<style type="text/css">
	.st0{fill:none;stroke:#DAA520;stroke-width:2.2962;stroke-miterlimit:10;}
</style>
<path class="st0" d="M10.9,21.9c0.5-0.3,0.6-0.9,0.3-1.4C10,19.1,7.7,15.6,7.7,11c0-2.1-0.3-4.5,0.9-6.1C10,3,13.1,2,15.6,2
	c4.2,0,6.2,1.6,7.1,3.4c1,1.9,0.8,4,0.8,4s0.5,6.4-3,11c-0.4,0.6-0.3,1.4,0.3,1.7l8.8,4.8c0.4,0.3,0.7,0.7,0.7,1.2v0.8
	c0,0.8-0.6,1.4-1.4,1.4H3.6c-1.1,0-1.9-0.9-1.9-1.9v-0.5c0-0.7,0.4-1.4,1-1.7L10.9,21.9z"/>
</svg>
