<?xml version="1.0" encoding="utf-8"?>
<!-- Generator: Adobe Illustrator 21.0.0, SVG Export Plug-In . SVG Version: 6.00 Build 0)  -->
<svg version="1.1" id="Layer_1" xmlns="http://www.w3.org/2000/svg" xmlns:xlink="http://www.w3.org/1999/xlink" x="0px" y="0px"
	 width="150px" height="150px" viewBox="0 0 150 150" style="enable-background:new 0 0 150 150;" xml:space="preserve">
<style type="text/css">
	.st0{fill:#64696C;}
	.st1{fill:#DAA520;}
	.st2{fill:#B57D0D;}
</style>
<g>
	<path class="st0" d="M75.6,9.9c-36.2,0-65.5,29.4-65.5,65.7s29.3,65.7,65.5,65.7s65.5-29.4,65.5-65.7
		C141.1,39.4,111.8,9.9,75.6,9.9z M75.6,137.1c-33.8,0-61.3-27.5-61.3-61.5c0-33.9,27.4-61.5,61.3-61.5s61.3,27.5,61.3,61.5
		S109.5,137.1,75.6,137.1z"/>
	<path class="st0" d="M75.6,0.7c-41.4,0-75,33.6-75,75s33.6,75,75,75s75-33.6,75-75S117,0.7,75.6,0.7z M75.6,145.9
		c-38.8,0-70.2-31.4-70.2-70.2C5.5,37,36.9,5.5,75.6,5.5s70.2,31.4,70.2,70.2C145.8,114.5,114.4,145.9,75.6,145.9z"/>
	<path class="st1" d="M76,0.7v4.8c38.6,0.2,69.7,31.5,69.7,70.2c0,38.8-31.4,70.2-70.2,70.2S5.3,114.5,5.3,75.7c0-0.9,0-1.8,0.1-2.7
		H0.7c0,0.9-0.1,1.8-0.1,2.7c0,41.4,33.6,75,75,75s75-33.6,75-75C150.6,34.4,117.3,1,76,0.7z"/>
	<path class="st2" d="M75.6,9.9v4.2l0,0c33.8,0,61.3,27.5,61.3,61.5c0,33.9-27.4,61.5-61.3,61.5l0,0v4.2c36.2,0,65.5-29.4,65.5-65.7
		C141.1,39.4,111.8,9.9,75.6,9.9z"/>
</g>
</svg>
