<?xml version="1.0" encoding="utf-8"?>
<!-- Generator: Adobe Illustrator 21.0.0, SVG Export Plug-In . SVG Version: 6.00 Build 0)  -->
<svg version="1.1" id="Layer_1" xmlns="http://www.w3.org/2000/svg" xmlns:xlink="http://www.w3.org/1999/xlink" x="0px" y="0px"
	 width="32px" height="32px" viewBox="0 0 32 32" style="enable-background:new 0 0 32 32;" xml:space="preserve">
<style type="text/css">
	.st0{fill:#DAA520;}
</style>
<g>
	<path class="st0" d="M2.3,19.7c0,0-2.9-10.9,8.4-15.3c0.7-0.3,8.4-2.8,14,4.3c0.4,0.7,3.5,4.3,1.7,10.6l4.5,1.3
		c0,0,3.4-8.3-4.3-15.7c0,0-7.7-7.5-18.6-1.9C7,3.4-2,8.8,0.9,20.2L2.3,19.7z"/>
	<path class="st0" d="M16.5,14.4l5.5-3c0,0,0.7-0.3,1.2,0.3S23,13.1,23,13.1L18.2,17c0,0,0.5,1.4-1.6,2.7c-0.4,0.2-2.7,0.7-3.8-1.3
		C12.4,17.5,12.4,13.8,16.5,14.4z"/>
	<circle class="st0" cx="25.8" cy="25.3" r="2.3"/>
	<ellipse class="st0" cx="19.4" cy="29.1" rx="2" ry="1.9"/>
	<circle class="st0" cx="11.9" cy="29.5" r="1.6"/>
	<circle class="st0" cx="5.7" cy="26.5" r="1.1"/>
</g>
</svg>
